<?xml version="1.0" encoding="UTF-8" standalone="no"?>
<!-- Created with Inkscape (http://www.inkscape.org/) -->
<svg xmlns:inkscape="http://www.inkscape.org/namespaces/inkscape" xmlns:rdf="http://www.w3.org/1999/02/22-rdf-syntax-ns#" xmlns="http://www.w3.org/2000/svg" xmlns:xlink="http://www.w3.org/1999/xlink" xmlns:ns1="http://sozi.baierouge.fr" xmlns:cc="http://creativecommons.org/ns#" xmlns:sodipodi="http://sodipodi.sourceforge.net/DTD/sodipodi-0.dtd" xmlns:dc="http://purl.org/dc/elements/1.1/" id="svg2" xml:space="preserve" viewBox="0 0 83.462 76.989" version="1.1" inkscape:version="0.91 r13725">
  <defs id="defs6">
    <clipPath id="clipPath18">
      <path id="path20" d="m0-0.40915h67v22h-67v-22z" inkscape:connector-curvature="0"/>
    </clipPath>
    <mask id="mask22">
      <g id="g24">
        <g id="g26" clip-path="url(#clipPath18)">
          <path id="path28" style="fill:#000000;fill-opacity:.14060" d="m0-0.40915h67v22h-67v-22z" inkscape:connector-curvature="0"/>
        </g>
      </g>
    </mask>
    <clipPath id="clipPath34">
      <path id="path36" d="m0-0.40915h67v22h-67v-22z" inkscape:connector-curvature="0"/>
    </clipPath>
    <clipPath id="clipPath38">
      <path id="path40" d="m0 0h67v22h-67v-22z" inkscape:connector-curvature="0"/>
    </clipPath>
    <radialGradient id="radialGradient68" gradientUnits="userSpaceOnUse" cy="38.732" cx="-76.789" gradientTransform="matrix(-.00592 .8 -.8 -.00592 61.953 62.05)" r="67.502">
      <stop id="stop70" style="stop-color:#4fb395" offset="0"/>
      <stop id="stop72" style="stop-color:#53b598" offset=".2471"/>
      <stop id="stop76" style="stop-color:#5fbda1" offset=".47060"/>
      <stop id="stop78" style="stop-color:#74c9af" offset="0.698"/>
      <stop id="stop80" style="stop-color:#90dac3" offset=".92550"/>
      <stop id="stop82" style="stop-color:#97dec8" offset=".97650"/>
      <stop id="stop84" style="stop-color:#97dec8" offset="1"/>
    </radialGradient>
  </defs>
  <g id="g10" transform="matrix(1.25 0 0 -1.25 0 76.989)">
    <g id="g12">
      <g id="g14">
        <g id="g30" mask="url(#mask22)">
          <g id="g42">
            <g id="g44" clip-path="url(#clipPath34)">
              <g id="g46" transform="translate(0 -.40915)">
                <g id="g50">
                  <g id="g52" clip-path="url(#clipPath38)">
                    <g id="g54">
                      <path id="path56" style="fill-rule:evenodd;fill:#000000" d="m65.062 15.922c0.266-0.27 0.52-0.707 0.762-1.32 0.133-0.348 0.172-0.508 0.117-0.481-0.211 0.051-0.386-0.055-0.519-0.32-0.106-0.242 0.148-0.789 0.762-1.641 0.586-0.801 0.734-1.387 0.437-1.762-0.32-0.398-0.797-0.652-1.437-0.757-1.039-0.106-2.028-0.254-2.961-0.442-1.121-0.238-1.746-0.453-1.879-0.64-0.43-0.481-0.668-0.731-0.723-0.758-0.398-0.266-1.598-1-3.598-2.199-0.8-0.481-1.308-0.762-1.519-0.84-0.613-0.188-0.977-0.309-1.082-0.364-2.266-0.796-4.067-1.464-5.399-2-0.988-0.476-1.707-0.796-2.16-0.957-0.718-0.32-1.734-0.601-3.039-0.839-1.336-0.243-2.336-0.254-3-0.043l-0.601 0.441c-5.332 0.133-9.2 0.199-11.602 0.199-1.863 0-3.051 0.016-3.559 0.039-0.585 0-1.265 0.055-2.039 0.16-0.668 0.082-2.093 0.774-4.281 2.082l-3.121 1.918c-1.73 0.801-3.332 1.735-4.797 2.801-1.043 0.746-2.015 1.242-2.922 1.481-0.773 0.215-1.867 0.32-3.281 0.32-0.453 0-1.144 0.426-2.078 1.281-0.906 0.797-1.414 1.371-1.52 1.719-0.054 0.188-0.015 0.266 0.122 0.238 0.398-0.105 0.824-0.117 1.277-0.039 0.508 0.082 0.746 0.375 0.723 0.879-0.028 0.828 0.066 1.469 0.277 1.922 0.32 0.641 0.906 1 1.762 1.078 2.05 0.188 3.132 0.297 3.238 0.32 11.812 2.536 20.547 3.934 26.199 4.204 3.469 0.16 6.906 0 10.32-0.481 2.028-0.293 5.321-0.801 9.883-1.519 3.172-0.403 5.547-0.95 7.117-1.641 0.829-0.348 1.653-0.734 2.481-1.16 0.723-0.188 1.266-0.481 1.64-0.879z" inkscape:connector-curvature="0"/>
                    </g>
                  </g>
                </g>
              </g>
            </g>
          </g>
        </g>
      </g>
      <g id="g58">
        <g id="g60">
          <g id="g66">
            <path id="path86" style="fill-rule:evenodd;fill:url(#radialGradient68)" d="m55.824 29.192c1.867-4.535 4.399-9.867 7.598-16-1.067-1.066-3.598-2.8-7.598-5.203-2.855-2.078-4.922-3.398-6.203-3.957-1.863-0.828-5.133-1.242-9.797-1.242-7.203 0-13.734 0.266-19.601 0.801-2.934 2.133-5.067 3.465-6.399 4-0.828 0.32-2.679 1.215-5.562 2.68l-4.039 2.121c0.132 1.652 0.441 3.519 0.922 5.597 0.933 4.137 2.222 7.203 3.878 9.203 1.735 2.079 2.868 3.973 3.399 5.68 0.402 2.078 0.734 3.785 1 5.117l2.402 11.602 2.797 6c3.469 0 6.801 0.398 10 1.199 3.203 0.801 7.469 2.402 12.801 4.801 1.867-6.399 3.199-11.465 4-15.199 0.508-2.348 1.453-4.055 2.84-5.121 0.722-0.536 1.375-0.825 1.961-0.879h4.8l-0.64-3.039c-0.215-2.618 0.265-5.336 1.441-8.161z" inkscape:connector-curvature="0"/>
          </g>
        </g>
      </g>
      <path id="path88" style="fill-rule:evenodd;fill:#afedd9" d="m41.582 60.989 0.039-0.238 0.16-0.559 0.043-0.082 0.438-1.519v-0.039l0.121-0.481 0.078-0.16 0.121-0.558 0.039-0.043 0.563-2.161h0.039l0.398-1.558c-1.012-1.625-1.863-3.813-2.559-6.559-1.011-4.136-1.359-8.746-1.039-13.84 0.321-5.121-0.441-8.8-2.281-11.043-0.453-0.585-1.094-1.293-1.918-2.117-0.59-0.75-0.855-1.629-0.801-2.64 0.079-2-0.535-2.934-1.839-2.801l-1.961 0.801 0.8 4.8c0.133 0.797 0.852 2.012 2.161 3.637 1.171 1.414 1.652 2.469 1.437 3.16-0.16 0.563-0.41 2.055-0.758 4.481-0.32 2.426-0.668 4.265-1.039 5.519-0.429 1.414-1.48 3.403-3.16 5.961l-2.441 3.442c-0.668 0.531-2 0.867-4 1-1.254 0.078-2.868 0.332-4.84 0.757l-2.559 0.641c-0.136-0.664-0.469-1.801-1-3.398-0.187-0.563-0.613-2.254-1.281-5.082-0.613-2.641-1.188-4.68-1.719-6.118l-0.16-0.32c0.16 0.641 0.305 1.453 0.438 2.438l0.043 0.32 2.679 12.961 1.758 0.078c1.52 0.027 3.066 0 4.641-0.078 2.132-0.106 4.054 0.187 5.761 0.879 2.161 0.855 4.438 2.496 6.84 4.922 1.891 1.894 3.918 3.879 6.078 5.961l0.52 0.238v-0.121l0.039-0.078 0.121-0.403z" inkscape:connector-curvature="0"/>
      <path id="path90" style="fill-rule:evenodd;fill:#50ab90" d="m41.543 61.11c1.945-6.984 3.238-11.894 3.879-14.718 0.48-2.266 1.387-3.946 2.723-5.039-2.215-2.297-3.602-5.067-4.161-8.321-0.269-1.652-0.32-3.066-0.16-4.242 2.934 2.402 5.332 4.535 7.199 6.402 1.039 1.039 2.145 1.758 3.321 2.161-0.215-2.618 0.277-5.336 1.48-8.161 1.867-4.535 4.399-9.867 7.598-16-1.067-1.066-3.598-2.8-7.598-5.203-2.855-2.078-4.922-3.398-6.203-3.957-1.863-0.828-5.133-1.242-9.797-1.242l-7.281 0.082c-0.16 0.027-0.414 0.039-0.762 0.039h-0.078c-0.32 0-0.558 0.016-0.719 0.039h-0.839c-0.188 0.028-0.43 0.043-0.723 0.043h-0.039c-3.36 0.184-5.254 0.293-5.68 0.321h-0.039l-0.402 0.039h-0.438l-0.121 0.039h-0.441l-0.278 0.039h-0.121l-0.242 0.039h-0.398l-0.2 0.043h-0.359l-0.082 0.039h-0.32l-0.039 0.039c-2.934 2.133-5.067 3.465-6.399 4l-0.402 0.121-9.199 4.68c0.16 1.918 0.519 4.027 1.078 6.32 0.695-1.629 1.668-2.934 2.922-3.922 0.265-0.187 0.988-0.254 2.16-0.199 1.226 0.078 2.039 0.012 2.441-0.199 0.797-0.403 1.864-1.133 3.199-2.2l0.68-0.441c0.641-0.293 1.414-0.48 2.32-0.559 1.387-0.136 4.055-0.054 8 0.239 1.52 1.386 2.719 3.039 3.598 4.961 1.176 2.507 2.59 4.718 4.242 6.64 0.852 0.957 1.575 1.68 2.16 2.16-0.8 5.332-1.332 9.067-1.601 11.2-0.16 1.332-1.277 3.734-3.36 7.199l-3.039 4.801c3.2 3.199 6.133 5.867 8.801 8 1.067 0.851 1.891 1.664 2.481 2.437 0.504 0.641 0.918 1.402 1.238 2.281z" inkscape:connector-curvature="0"/>
      <path id="path92" style="fill-rule:evenodd;fill:#459980" d="m53.621 22.591c0.508 0.265 1.281 0.359 2.32 0.281 1.254-0.109 2.282-0.469 3.082-1.082l0.161-0.16c1.464-3.039 2.878-5.852 4.238-8.438-1.067-1.066-3.598-2.8-7.598-5.203-2.855-2.078-4.922-3.398-6.203-3.957-1.863-0.828-5.133-1.242-9.797-1.242l-7.281 0.082c-0.16 0.027-0.414 0.039-0.762 0.039h-0.078c-0.32 0-0.558 0.016-0.719 0.039h-0.839c-0.188 0.028-0.43 0.043-0.723 0.043h-0.039c-3.36 0.184-5.254 0.293-5.68 0.321h-0.039l-0.402 0.039h-0.438l-0.121 0.039h-0.441l-0.278 0.039h-0.121l-0.242 0.039h-0.398l-0.2 0.043h-0.359l-0.082 0.039h-0.32l-0.039 0.039c-2.934 2.133-5.067 3.465-6.399 4l-0.402 0.121-9.199 4.68 0.039 0.16c0.855-0.641 1.773-0.961 2.761-0.961h5l0.918-1.16c0.774-0.852 1.536-1.399 2.282-1.641 0.613-0.211 1.172-0.426 1.679-0.641 0.453-0.105 1.36-0.16 2.719-0.16 0.906 0 2.789-0.293 5.641-0.879 2.722-0.558 4.84-0.8 6.359-0.718 2.055 0.105 3.242 0.254 3.563 0.437 0.265 0.16 0.812 1.016 1.64 2.563 0.774 1.707 1.293 2.851 1.559 3.437 0.453 0.91 1.133 1.695 2.039 2.363 0.961 0.692 1.668 1.504 2.121 2.438 0.078 0.16 0.375 1.016 0.879 2.562 0.215 0.692 0.453 1.68 0.723 2.957-0.375-2.773-0.083-5.093 0.878-6.957 0.801-1.574 1.598-2.75 2.399-3.523 0.801-0.719 1.402-0.879 1.801-0.477 0.425 0.426 0.867 1.067 1.32 1.918 0.453 0.907 0.68 1.602 0.68 2.082-0.133 0.664-0.215 1.161-0.239 1.477-0.054 0.617 0.161 1.121 0.637 1.523 0.43 0.344 0.817 0.985 1.16 1.918 0.321 0.856 0.602 1.348 0.84 1.481z" inkscape:connector-curvature="0"/>
      <path id="path94" style="fill-rule:evenodd;fill:#86d4bc" d="m8.621 26.751c1.602 1.785 3.016 3.117 4.242 4 1.254 0.906 2.453 1.535 3.598 1.879l7.762-0.117c0.695-0.055 1.32-0.387 1.879-1l1.16-1.282c1.176-0.773 2.199-1.347 3.082-1.718 0.371-0.16 0.25-0.293-0.36-0.403-1.093-0.211-1.734-0.347-1.922-0.398-0.507-0.16-1-0.176-1.48-0.043-1.012 0.375-2.121 0.734-3.32 1.082-1.465 0.426-2.332 0.602-2.598 0.52-0.16-0.266-0.496-0.442-1-0.52-0.269-0.051-0.961-0.082-2.082-0.082-1.066-0.023-2.32-0.172-3.758-0.438-2.48-0.425-4.215-0.921-5.203-1.48z" inkscape:connector-curvature="0"/>
      <path id="path96" style="fill-rule:evenodd;fill:#86d4bc" d="m20.863 42.149c0.293 0.028 1.012 0.016 2.16-0.039l3.84-1.757h-1.84c-0.906 0.105-2.293 0.16-4.16 0.16-1.175 0-2.082-0.27-2.718-0.801-0.024-0.02-0.047-0.039-0.063-0.063 0.422 0.555 0.91 1.11 1.461 1.661 0.535 0.535 0.973 0.816 1.32 0.839z" inkscape:connector-curvature="0"/>
      <path id="path98" style="fill-rule:evenodd;fill:#86d4bc" d="m29.023 22.353c0.586 0.425 1.278 0.636 2.079 0.636 0.8 0 1.043-0.117 0.722-0.359-0.16-0.133-0.336-0.504-0.523-1.117-0.211-0.75-0.492-1.348-0.84-1.801-0.399-0.586-0.863-1.121-1.399-1.602-0.078-0.078-0.546-0.48-1.398-1.199-0.613-0.531-1.723-0.933-3.32-1.199 0.984 1.066 1.746 2.133 2.277 3.199 0.934 1.84 1.734 2.988 2.402 3.442z" inkscape:connector-curvature="0"/>
    </g>
  </g>
<metadata><rdf:RDF><cc:Work><dc:format>image/svg+xml</dc:format><dc:type rdf:resource="http://purl.org/dc/dcmitype/StillImage"/><cc:license rdf:resource="http://creativecommons.org/licenses/publicdomain/"/><dc:publisher><cc:Agent rdf:about="http://openclipart.org/"><dc:title>Openclipart</dc:title></cc:Agent></dc:publisher></cc:Work><cc:License rdf:about="http://creativecommons.org/licenses/publicdomain/"><cc:permits rdf:resource="http://creativecommons.org/ns#Reproduction"/><cc:permits rdf:resource="http://creativecommons.org/ns#Distribution"/><cc:permits rdf:resource="http://creativecommons.org/ns#DerivativeWorks"/></cc:License></rdf:RDF></metadata></svg>
